<svg xmlns="http://www.w3.org/2000/svg" viewBox="0 0 368.13 304.16"><g id="Capa_2" data-name="Capa 2"><g id="Capa_1-2" data-name="Capa 1"><path d="M340.37,160.05H12.12c-8.26,0-12-2.43-12.12-7.85-.11-5.58,3.76-8.15,12.3-8.15H340.43c-1.91-2-3.15-3.41-4.46-4.72Q274.65,78,213.31,16.62A35.6,35.6,0,0,1,209.87,13c-2.67-3.54-2.55-7.15.4-10.46s7.21-3.37,10.82-.61A33.89,33.89,0,0,1,224.35,5q69.3,69.29,138.59,138.6c6.95,7,6.93,9.92-.14,17q-69.29,69.31-138.59,138.61a26.45,26.45,0,0,1-3.68,3.35c-3.5,2.36-7.06,2.11-10-.82-3.13-3.1-3.38-6.78-.81-10.41a30,30,0,0,1,3.4-3.65l123-123C337.33,163.41,338.48,162.09,340.37,160.05Z"/></g></g></svg>