<svg xmlns="http://www.w3.org/2000/svg" xmlns:xlink="http://www.w3.org/1999/xlink" viewBox="0 0 1486.02 2095.62"><defs><style>.cls-1{fill:none;}.cls-2{fill:url(#Degradado_sin_nombre_17);}.cls-3{fill:url(#Degradado_sin_nombre_17-4);}.cls-10,.cls-11,.cls-12,.cls-13,.cls-14,.cls-15,.cls-16,.cls-17,.cls-4,.cls-5,.cls-6,.cls-7,.cls-8,.cls-9{stroke-miterlimit:10;}.cls-4{fill:url(#Degradado_sin_nombre_17-5);stroke:url(#Degradado_sin_nombre_17-6);}.cls-5{fill:url(#Degradado_sin_nombre_17-8);stroke:url(#Degradado_sin_nombre_17-9);}.cls-6{fill:url(#Degradado_sin_nombre_17-10);stroke:url(#Degradado_sin_nombre_17-11);}.cls-7{fill:url(#Degradado_sin_nombre_9);stroke:url(#Degradado_sin_nombre_9-2);}.cls-8{fill:url(#Degradado_sin_nombre_17-12);stroke:url(#Degradado_sin_nombre_17-13);}.cls-9{fill:url(#Degradado_sin_nombre_17-14);stroke:url(#Degradado_sin_nombre_17-15);}.cls-10{fill:url(#Degradado_sin_nombre_12);stroke:url(#Degradado_sin_nombre_12-2);}.cls-11{fill:url(#Degradado_sin_nombre_13);stroke:url(#Degradado_sin_nombre_13-2);}.cls-12{fill:url(#Degradado_sin_nombre_14);stroke:url(#Degradado_sin_nombre_14-2);}.cls-13{fill:url(#Degradado_sin_nombre_17-16);stroke:url(#Degradado_sin_nombre_17-17);}.cls-14{fill:url(#Degradado_sin_nombre_17-18);stroke:url(#Degradado_sin_nombre_17-19);}.cls-15{fill:url(#Degradado_sin_nombre_17-20);stroke:url(#Degradado_sin_nombre_17-21);}.cls-16{fill:url(#Degradado_sin_nombre_18);stroke:url(#Degradado_sin_nombre_18-2);}.cls-17{fill:url(#Degradado_sin_nombre_19);stroke:url(#Degradado_sin_nombre_19-2);}</style><linearGradient id="Degradado_sin_nombre_17" x1="1223.89" y1="2094.32" x2="1223.91" y2="2094.32" gradientTransform="matrix(1, 0, 0, -1, 0, 2098.68)" gradientUnits="userSpaceOnUse"><stop offset="0" stop-color="#2f3742"/><stop offset="1" stop-color="#537895"/></linearGradient><linearGradient id="Degradado_sin_nombre_17-4" x1="1042.2" y1="1956.45" x2="1042.56" y2="1956.45" xlink:href="#Degradado_sin_nombre_17"/><linearGradient id="Degradado_sin_nombre_17-5" x1="-271.61" y1="1555.35" x2="1076.47" y2="1853.56" xlink:href="#Degradado_sin_nombre_17"/><linearGradient id="Degradado_sin_nombre_17-6" x1="266.89" y1="295.62" x2="1228.57" y2="295.62" gradientTransform="matrix(1, 0, 0, 1, 0, 0)" xlink:href="#Degradado_sin_nombre_17"/><linearGradient id="Degradado_sin_nombre_17-8" x1="-680.8" y1="1507.49" x2="1508.81" y2="1621.87" xlink:href="#Degradado_sin_nombre_17"/><linearGradient id="Degradado_sin_nombre_17-9" x1="0" y1="537.67" x2="718.64" y2="537.67" gradientTransform="matrix(1, 0, 0, 1, 0, 0)" xlink:href="#Degradado_sin_nombre_17"/><linearGradient id="Degradado_sin_nombre_17-10" x1="-692.78" y1="709.77" x2="1717.43" y2="2278.45" xlink:href="#Degradado_sin_nombre_17"/><linearGradient id="Degradado_sin_nombre_17-11" x1="6.91" y1="821.06" x2="269.52" y2="821.06" gradientTransform="matrix(1, 0, 0, 1, 0, 0)" xlink:href="#Degradado_sin_nombre_17"/><linearGradient id="Degradado_sin_nombre_9" x1="-80.95" y1="-572.24" x2="866.8" y2="1531.59" gradientTransform="matrix(1, 0, 0, -1, 0, 2098.68)" gradientUnits="userSpaceOnUse"><stop offset="0" stop-color="#44abd0"/><stop offset="0.44" stop-color="#2a9ac0"/><stop offset="1" stop-color="#0281a7"/></linearGradient><linearGradient id="Degradado_sin_nombre_9-2" x1="115.9" y1="1061.25" x2="1145.39" y2="1061.25" gradientTransform="matrix(1, 0, 0, 1, 0, 0)" xlink:href="#Degradado_sin_nombre_9"/><linearGradient id="Degradado_sin_nombre_17-12" x1="-419.96" y1="516.22" x2="1818.68" y2="-84.29" xlink:href="#Degradado_sin_nombre_17"/><linearGradient id="Degradado_sin_nombre_17-13" x1="258.1" y1="1803.04" x2="898.02" y2="1803.04" gradientTransform="matrix(1, 0, 0, 1, 0, 0)" xlink:href="#Degradado_sin_nombre_17"/><linearGradient id="Degradado_sin_nombre_17-14" x1="702" y1="874.63" x2="681.58" y2="2292.16" xlink:href="#Degradado_sin_nombre_17"/><linearGradient id="Degradado_sin_nombre_17-15" x1="107.29" y1="511.42" x2="1278.79" y2="511.42" gradientTransform="matrix(1, 0, 0, 1, 0, 0)" xlink:href="#Degradado_sin_nombre_17"/><linearGradient id="Degradado_sin_nombre_12" x1="2300.67" y1="567.04" x2="850.46" y2="1171.64" gradientTransform="matrix(1, 0, 0, -1, 0, 2098.68)" gradientUnits="userSpaceOnUse"><stop offset="0" stop-color="#8af4ef"/><stop offset="0.46" stop-color="#68d0e0"/><stop offset="1" stop-color="#44abd0"/></linearGradient><linearGradient id="Degradado_sin_nombre_12-2" x1="241.21" y1="1001.28" x2="1416" y2="1001.28" gradientTransform="matrix(1, 0, 0, 1, 0, 0)" xlink:href="#Degradado_sin_nombre_12"/><linearGradient id="Degradado_sin_nombre_13" x1="697.23" y1="377.48" x2="1199.7" y2="708.37" gradientTransform="matrix(1, 0, 0, -1, 0, 2098.68)" gradientUnits="userSpaceOnUse"><stop offset="0" stop-color="#44abd0"/><stop offset="0.34" stop-color="#319fc4"/><stop offset="1" stop-color="#0281a7"/></linearGradient><linearGradient id="Degradado_sin_nombre_13-2" x1="491.62" y1="1573.27" x2="1437.96" y2="1573.27" gradientTransform="matrix(1, 0, 0, 1, 0, 0)" xlink:href="#Degradado_sin_nombre_13"/><linearGradient id="Degradado_sin_nombre_14" x1="2381.35" y1="474.66" x2="1004.67" y2="613.56" gradientTransform="matrix(1, 0, 0, -1, 0, 2098.68)" gradientUnits="userSpaceOnUse"><stop offset="0" stop-color="#8af4ef"/><stop offset="0.23" stop-color="#80e9ea"/><stop offset="0.62" stop-color="#64ccde"/><stop offset="1" stop-color="#44abd0"/></linearGradient><linearGradient id="Degradado_sin_nombre_14-2" x1="1143.07" y1="1517.74" x2="1486.02" y2="1517.74" gradientTransform="matrix(1, 0, 0, 1, 0, 0)" xlink:href="#Degradado_sin_nombre_14"/><linearGradient id="Degradado_sin_nombre_17-16" x1="874.7" y1="-739.1" x2="960.48" y2="621.24" xlink:href="#Degradado_sin_nombre_17"/><linearGradient id="Degradado_sin_nombre_17-17" x1="547.53" y1="1982.04" x2="1310.1" y2="1982.04" gradientTransform="matrix(1, 0, 0, 1, 0, 0)" xlink:href="#Degradado_sin_nombre_17"/><linearGradient id="Degradado_sin_nombre_17-18" x1="1776.07" y1="753.52" x2="505.6" y2="332.76" xlink:href="#Degradado_sin_nombre_17"/><linearGradient id="Degradado_sin_nombre_17-19" x1="258.2" y1="1742.2" x2="1199.54" y2="1742.2" gradientTransform="matrix(1, 0, 0, 1, 0, 0)" xlink:href="#Degradado_sin_nombre_17"/><linearGradient id="Degradado_sin_nombre_17-20" x1="1726.37" y1="381.4" x2="651.99" y2="275.19" xlink:href="#Degradado_sin_nombre_17"/><linearGradient id="Degradado_sin_nombre_17-21" x1="894.95" y1="1776.28" x2="1309.04" y2="1776.28" gradientTransform="matrix(1, 0, 0, 1, 0, 0)" xlink:href="#Degradado_sin_nombre_17"/><linearGradient id="Degradado_sin_nombre_18" x1="1011.46" y1="331.89" x2="1309.6" y2="331.89" gradientTransform="matrix(1, 0, 0, -1, 0, 2098.68)" gradientUnits="userSpaceOnUse"><stop offset="0" stop-opacity="0"/><stop offset="0.86" stop-opacity="0.23"/><stop offset="1" stop-opacity="0.5"/></linearGradient><linearGradient id="Degradado_sin_nombre_18-2" x1="1008.93" y1="1768.03" x2="1310.1" y2="1768.03" gradientTransform="matrix(1, 0, 0, 1, 0, 0)" xlink:href="#Degradado_sin_nombre_18"/><linearGradient id="Degradado_sin_nombre_19" x1="2386.31" y1="819.14" x2="110.91" y2="1272.59" gradientTransform="matrix(1, 0, 0, -1, 0, 2098.68)" gradientUnits="userSpaceOnUse"><stop offset="0" stop-color="#44abd0" stop-opacity="0"/><stop offset="0.85" stop-color="#1f4e5e" stop-opacity="0.44"/><stop offset="1" stop-opacity="0.8"/></linearGradient><linearGradient id="Degradado_sin_nombre_19-2" x1="115.9" y1="902.45" x2="1006.39" y2="902.45" gradientTransform="matrix(1, 0, 0, 1, 0, 0)" xlink:href="#Degradado_sin_nombre_19"/></defs><g id="Capa_2" data-name="Capa 2"><g id="Capa_1-2" data-name="Capa 1"><path class="cls-1" d="M488.56,888.34h-.12v-.09Z"/><path class="cls-2" d="M1223.91,4.41h0V4.32A.14.14,0,0,1,1223.91,4.41Z"/><path class="cls-1" d="M488.56,888.34h-.12v-.09Z"/><path class="cls-2" d="M1223.91,4.41h0V4.32A.14.14,0,0,1,1223.91,4.41Z"/><path class="cls-2" d="M1223.91,4.41h0V4.32A.14.14,0,0,1,1223.91,4.41Z"/><path class="cls-1" d="M488.56,888.34h-.12v-.09Z"/><path class="cls-3" d="M1042.56,142.17l-.36.12"/><path class="cls-1" d="M1155,2035.5l-1.18.48"/><path class="cls-1" d="M488.56,888.34h-.12v-.09Z"/><path class="cls-4" d="M1228.07,64a421.71,421.71,0,0,1-116.36,291.42q-6,6.33-12.28,12.41c-1.65,1.61-3.52,3.4-5.59,5.33l-3.88,3.59-.18.16-3,2.7-1.11,1c-1.27,1.13-2.54,2.24-3.82,3.35l-3,2.53c-1.07.91-2.18,1.84-3.31,2.78l-1.31,1.09-1.61,1.32s-.67.55-1.9,1.53l-1,.8-1.26,1a417.68,417.68,0,0,1-48.77,33.63l-.36.21c-77.24,46.65-156.58,70-156.58,70-50.89,15-111.43,25.46-174.52,33.61-89.94,11.6-185.06,18.49-264.8,27-41.73,4.48-79.25,9.4-109.61,15.7,0,0-18.34,3.8-45.64,12.08a1019,1019,0,0,1,194-200.47Q481.08,372,500.7,358A1010.44,1010.44,0,0,1,718.46,240.61l.29-.08,4.78-1.31,7.27-2,4.66-1.28.86-.23,6.91-1.92c10.93-3,22.33-6.24,34.33-9.65l4.11-1.17,7.31-2.09q16.68-4.77,32.69-9.46l3.89-1.14,7.72-2.27,7.63-2.25Q854.2,201.83,867,198q5.26-1.56,10.45-3.15l14.66-4.49h0l6.76-2.07C948.5,173,991.07,159.27,1025,148l.18-.06q8.83-2.91,16.88-5.62h.08a382.21,382.21,0,0,0,172.07-125q5-6.36,9.65-12.94,2.63,18.52,3.61,37.56Q1228.07,52.93,1228.07,64Z"/><path class="cls-2" d="M1223.91,4.41h0V4.32A.14.14,0,0,1,1223.91,4.41Z"/><path class="cls-1" d="M488.56,888.34h-.12v-.09Z"/><path class="cls-5" d="M718.46,240.61A1010.15,1010.15,0,0,0,500.73,358.08Q481.11,372,462.21,386.81a1019,1019,0,0,0-194,200.47c-27.28,8.28-63.52,21-99.37,38.91l-.35.17-1.06.54-.53.27-1.58.8-1.55.81-1.52.81-2.52,1.35-.86.47c-1.42.77-2.76,1.51-4,2.21l-1.2.68-.38.21-1.21.7-1.68,1-.86.5-1.08.63-.77.46-.31.18-.46.28-.27.16-2,1.23h0c-.68.41-1.34.83-2,1.24-.38.23-.75.46-1.11.7-.69.43-1.36.86-2,1.29-.94.6-1.84,1.19-2.71,1.77L135,645.86c-1,.68-2,1.34-2.92,2l-2.62,1.79a304.2,304.2,0,0,0-48.89,42.82Q78.25,695,76,697.57A301.69,301.69,0,0,0,7.46,832.72a385.14,385.14,0,0,1-4.74-114.2A379.52,379.52,0,0,1,75.46,532.7c.47-.63.94-1.27,1.43-1.91l2.16-2.85c.91-1.19,1.84-2.4,2.81-3.62q2.74-3.51,5.75-7.14l.36-.44c.78-1,1.64-2,2.58-3.08.21-.25.43-.5.64-.76l1.15-1.35.63-.73h0l.09-.09.66-.76.07-.09c.54-.62,1.09-1.26,1.67-1.91l.79-.9.26-.29q1.45-1.65,3.06-3.4l1.51-1.66h0l.16-.17.48-.52,1.22-1.3.6-.65c.48-.49,1-1.05,1.58-1.66.76-.83,1.55-1.65,2.35-2.46.2-.21.4-.42.61-.62h0l.08-.08a.13.13,0,0,1,.06-.07l.07-.07.65-.66.4-.41,3-3,1.81-1.8c2.06-2,4.25-4.16,6.48-6.26s4.33-4,6.56-6c.54-.48,1.08-1,1.62-1.44a382.34,382.34,0,0,1,51.87-38.79l.1-.07c46.34-30.14,99.89-55.77,146.92-75.51,67.63-28.42,121.81-44.64,121.81-44.64l12.5-3.73c13-3.86,25.27-7.47,37-10.88l5.8-1.68c10.88-3.16,21.25-6.13,31.21-9l6.58-1.87.37-.1,5.13-1.45c9.35-2.63,18.36-5.14,27.11-7.55l3.81-1q7.75-2.14,15.26-4.18l6.17-1.68,1.3-.35,10.2-2.68,2.22-.6,5.84-1.57.81-.22,11-2.95,2.6-.7,4-1.06,3.09-.9,3.34-.9,7.36-2,3.53-.95c12.61-3.37,25.3-6.77,38.4-10.3l3.64-1,7-1.88,4.64-1.26Z"/><path class="cls-6" d="M268.23,587.28q-3.83,5.22-7.58,10.51Q235.29,633.4,213,671.23a1007.38,1007.38,0,0,0-51.16,98.9q-15,33.48-27.68,68.21-9.34,25.65-17.31,51.93v.06c-.23.73-.45,1.47-.67,2.2l-.54,1.79a1,1,0,0,1-.08.28,196.11,196.11,0,0,0,6.61,128.06,111.51,111.51,0,0,0,15.47,30.15A381.8,381.8,0,0,1,14.19,861.59q-3.13-11.25-5.55-22.83c-.43-2-.83-4-1.22-6A301.66,301.66,0,0,1,75.93,697.57q2.26-2.58,4.59-5.1a304.07,304.07,0,0,1,48.94-42.82l2.62-1.82,2.92-2,1.83-1.21c.87-.58,1.77-1.17,2.71-1.77l.94-.6,1.08-.69c.36-.24.73-.47,1.11-.7.65-.41,1.31-.83,2-1.24h0l2-1.23.27-.16.46-.28.31-.18.75-.43,1.09-.64.86-.5,1.68-1,1.21-.7.38-.21,1.2-.68c1.24-.7,2.58-1.44,4-2.21l.86-.47q1.23-.67,2.52-1.35l1.52-.81,1.55-.81,1.58-.8.53-.27,1.06-.54.35-.17C204.71,608.34,241,595.56,268.23,587.28Z"/><path class="cls-1" d="M488.56,888.34h-.12v-.09Z"/><path class="cls-1" d="M1005.05,833.44h-.14"/><path class="cls-7" d="M1144.22,1221.25c-180.93,29.92-293.12,48.46-373.84,53.78-56,3.69-135.89,3.6-234.78-15.3q-21.29-4.07-43.74-9.34h0c-30.4-12.75-61.76-26.05-92.4-39.43-12.59-5.48-25.06-11-37.29-16.39h0c-61.43-27.28-116.7-53.37-150.54-72.74l-3.63-2.1-1.71-1-.84-.5-.83-.5h-.06c-.86-.51-1.7-1-2.53-1.53-1.27-.78-2.51-1.55-3.69-2.3l-1.18-.75h-.07q-3.69-2.4-7.26-4.94-1.83-1.29-3.61-2.64c-.52-.38-1-.77-1.53-1.16-.91-.7-1.79-1.4-2.65-2.09s-2-1.61-2.92-2.38l-1-.85-1.12-.94-1.27-1.08-.75-.65-1.11-1-.89-.78c-1.45-1.29-2.52-2.27-3.08-2.78l-.43-.4c-.74-.69-1.46-1.38-2.15-2l-1-1-.17-.16-1.1-1.1c-1.86-1.86-3.53-3.6-5-5.19l-1.45-1.58c-.93-1-1.77-2-2.52-2.83a194.75,194.75,0,0,1-18.36-24.68h0a112.61,112.61,0,0,1-16.18-99.58c.26-.83.55-1.7.86-2.63.22-.62.44-1.27.68-1.93l.37-1c.22-.57.44-1.16.68-1.77.35-.89.72-1.81,1.12-2.75,0-.13.11-.25.16-.38l.75-1.7.27-.6c.27-.6.56-1.21.85-1.83.39-.81.8-1.64,1.23-2.48,0,0,.17-.34.48-.92.07-.15.16-.3.25-.48l.3-.56.34-.62c.83-1.53,2-3.59,3.34-5.78.28-.46.57-.92.87-1.39.18-.29.37-.58.56-.87l.17-.25c.06-.1.14-.21.22-.32l.21-.3c2.27-3.21,7.68-9.88,13.23-16.32h0A195.51,195.51,0,0,1,162,893.81c22.3-19.84,51.41-35.73,81.19-48.23h0q21.93,2.13,43.68,4.87,33.47,4.17,66.5,9.66,68.48,11.37,135,28.19h0v.09h.12q56.6,14.29,111.62,32.39l4.78,1.56q51.72,17.19,101.9,37.57a1665.22,1665.22,0,0,1,225.1,111.85q7.5,4.44,14.94,9h0q31,18.9,61.15,39.07A1680.5,1680.5,0,0,1,1144.22,1221.25Z"/><path class="cls-8" d="M896.46,1909.11q-37.85,22-77.75,40.74-22,10.35-44.66,19.62h0q-14,5.73-28.14,11a985.89,985.89,0,0,1-136.13,40.13q-5.52,1.22-11.06,2.34-24.57,5.08-49.56,8.92h0c-147.45-72.17-255.57-212.32-283.54-379.62a522.73,522.73,0,0,1-7-77.19h0a999.42,999.42,0,0,0,336.67,250.86q15.36,7,31,13.51l4.61,1.9q5.05,2.07,10.15,4.09A988.62,988.62,0,0,0,896.46,1909.11Z"/><path class="cls-9" d="M1278.29,257.28a478.61,478.61,0,0,1-53.8,221.2h0q-2.4,4.65-4.9,9.2a482.71,482.71,0,0,1-216.81,204.5L1001,693c-3.88,1.83-7.8,3.61-11.75,5.31-.61.28-1.23.54-1.85.81l-.53.23c-17.79,7.81-41.11,17.33-68.66,26.74a714.68,714.68,0,0,1-82.75,23.07c-22.38,4.81-45.74,8.76-72.08,12.43-40.92,5.75-89,10.75-151.77,17.35l-28.53,3c-66.74,7-112,11.94-154.81,17.61-14.68,1.94-29.06,4-43.93,6.21,0,0-59.28,8.91-121.55,32h0q-9.75,3.63-19.54,7.73h0c-29.78,12.5-58.89,28.39-81.19,48.23a196.75,196.75,0,0,0-13.6,14.69h0c-5.55,6.44-11,13.11-13.23,16.32l-.21.3c-.08.11-.16.22-.22.32l-.17.25c-.19.29-.38.58-.56.87-.3.47-.59.93-.87,1.39-1.35,2.19-2.51,4.25-3.34,5.78l-.34.62-.3.56c-.09.18-.18.33-.25.48-.31.58-.48.92-.48.92-.43.84-.84,1.67-1.23,2.48-.29.62-.58,1.23-.85,1.83l-.27.6-.75,1.7c0,.13-.11.25-.16.38-.4.94-.77,1.86-1.12,2.75-.24.61-.46,1.2-.68,1.77l-.37,1c-.24.64-.46,1.28-.68,1.93-.31.93-.6,1.8-.86,2.63a112.91,112.91,0,0,0,.6,69.35,196.11,196.11,0,0,1-6.61-128.06,1.47,1.47,0,0,1,.08-.28l.54-1.79c.22-.73.44-1.47.67-2.2v-.06q8-26.28,17.31-51.93,12.63-34.71,27.68-68.21A1007.38,1007.38,0,0,1,213,671.21q22.26-37.8,47.66-73.44,3.75-5.28,7.58-10.51c27.3-8.28,45.64-12.08,45.64-12.08,30.36-6.3,67.88-11.22,109.61-15.7,79.74-8.54,174.86-15.43,264.8-27,63.09-8.15,123.63-18.61,174.52-33.61,0,0,79.34-23.37,156.58-70l.36-.21A417.68,417.68,0,0,0,1068.47,395l1.26-1,1-.8,1.9-1.53,1.61-1.32,1.31-1.09c1.13-.94,2.24-1.87,3.31-2.78l3-2.53c1.28-1.11,2.55-2.22,3.82-3.35l1.11-1,3-2.7.18-.16q2-1.78,3.88-3.59c2.07-1.93,3.94-3.72,5.59-5.33q6.27-6.08,12.28-12.41A421.71,421.71,0,0,0,1228.07,64q0-11.07-.56-22-1-19-3.61-37.56h0a671.43,671.43,0,0,1,27.66,94.43h0a477.78,477.78,0,0,1,21.9,90.14A484.38,484.38,0,0,1,1278.29,257.28Z"/><path class="cls-10" d="M1415,1252.87a436.3,436.3,0,0,0-108.4-34c-72.55-12.6-129.51-3-162.32,2.39h0a1681.12,1681.12,0,0,0-136.16-101.54q-30.12-20.16-61.15-39.07h0q-7.44-4.53-14.94-9A1664.23,1664.23,0,0,0,706.86,959.81Q656.7,939.44,605,922.24l-4.78-1.56q-55-18.07-111.62-32.39h-.15q-66.48-16.77-135-28.19-33-5.46-66.5-9.66-21.75-2.73-43.68-4.87c6.51-2.74,13-5.31,19.54-7.73h0c62.27-23.13,121.55-32,121.55-32,14.87-2.23,29.25-4.27,43.93-6.21C471.05,794,516.32,789,583.06,782l28.53-3c62.79-6.68,110.87-11.68,151.87-17.43,26.34-3.67,49.7-7.62,72.08-12.43A1217.73,1217.73,0,0,1,961.79,808.8q21.86,11.9,43.17,24.66a1231.08,1231.08,0,0,1,304.88,258.06l.83,1,1.92,2.24q1.9,2.23,3.79,4.5a730.22,730.22,0,0,1,62.74,87.48c1,1.54,1.88,3.08,2.81,4.63Q1399.82,1221.22,1415,1252.87Z"/><path class="cls-1" d="M488.56,888.34h-.12v-.09Z"/><path class="cls-11" d="M1437.46,1664.42A373.68,373.68,0,0,1,1402.38,1823h0q-5.52,8.07-11.36,15.89h0a479.11,479.11,0,0,1-82.42,85.75q1-13.5,1-27.28,0-14.28-1.09-28.29a358.32,358.32,0,0,0-40-139.12q-8-15.3-17.45-29.71c-.46-.7-.93-1.42-1.42-2.15l-1.49-2.24-.12-.17c-.47-.7-1-1.42-1.46-2.14-1.89-2.75-4-5.67-6.17-8.71l-2-2.64c-1.41-1.9-2.89-3.84-4.42-5.82-.64-.82-1.28-1.64-1.94-2.47l-1.71-2.14c-.57-.72-1.16-1.45-1.76-2.18-1.58-1.94-3.22-3.92-4.93-5.92q-1.91-2.25-3.93-4.54-.66-.76-1.35-1.53l-.63-.71-.34-.36-1-1.11-1.3-1.41-.66-.71-.56-.61-.42-.44-.49-.52-.48-.5-1.11-1.16-.58-.61-.6-.62c-1.63-1.69-3.46-3.57-5.46-5.58l-1.11-1.11c-.75-.75-1.52-1.52-2.31-2.29l-2.44-2.38c-2.91-2.82-6.06-5.78-9.35-8.77l-2.15-1.92c-.72-.65-1.45-1.29-2.18-1.93-1.21-1.06-2.45-2.13-3.69-3.18l-.7-.59q-7.32-6.21-14.74-12.28c-87-71.46-181.92-130.63-263.22-175.46-33.34-18.38-64.39-34.34-91.69-47.75-35.92-17.64-65.32-30.85-84.86-39.31-16.87-7.29-26.39-11-26.39-11s-38.2-15.08-94-37.76c-26.87-10.93-57.81-23.64-90.52-37.27q-11.65-4.86-23.57-9.87,22.44,5.31,43.74,9.34c98.89,18.9,178.81,19,234.78,15.3,80.72-5.32,192.91-23.86,373.84-53.78h0q30.66,25.37,60.07,52.14A1683.74,1683.74,0,0,1,1328.46,1399q8.26,9.27,16.37,18.66.2.21.36.42c1.13,1.3,2.26,2.61,3.37,3.91l.3.35A374.08,374.08,0,0,1,1437.46,1664.42Z"/><path class="cls-12" d="M1485.52,1558.8v.37q-.24,21.54-2.35,42.57A474,474,0,0,1,1402.38,1823a374.85,374.85,0,0,0-53.48-400.69l-.3-.35q-1.68-2-3.37-3.91-.17-.21-.36-.42-8.1-9.39-16.37-18.66a1683.72,1683.72,0,0,0-124.2-125.58q-29.4-26.76-60.07-52.14c32.81-5.42,89.77-15,162.32-2.39a436.3,436.3,0,0,1,108.4,34,723.42,723.42,0,0,1,60.51,191.45q4.77,28.35,7.33,57.43v.15Q1485.24,1530.06,1485.52,1558.8Z"/><path class="cls-13" d="M1309.6,1897.42q0,13.77-1,27.28h0a412.82,412.82,0,0,1-108.48,88.78,405.74,405.74,0,0,1-46.29,22.49c-1.71.7-3.44,1.4-5.21,2.1a796,796,0,0,1-510,27.72l-3.24-.91c-2.38-.67-4.74-1.36-7.1-2.06q-14-4.17-27.6-9.09a512,512,0,0,1-51.5-21.85q25-3.84,49.56-8.92,5.53-1.11,11.06-2.34a985.89,985.89,0,0,0,136.13-40.13q14.18-5.28,28.14-11h0q22.62-9.27,44.66-19.62,39.87-18.69,77.75-40.74a1007.39,1007.39,0,0,0,275-7.18h0a987.62,987.62,0,0,0,120-27.61q8.55-2.53,17-5.22Q1309.59,1883.13,1309.6,1897.42Z"/><path class="cls-14" d="M1198.88,1637.53q-8.48,11.52-17.27,22.77c-1.57,2-3.16,4-4.78,6.07q-7.36,9.3-14.95,18.38c-1.16,1.4-2.33,2.8-3.5,4.18l-3.52,4.16q-5.29,6.24-10.7,12.36a1000,1000,0,0,1-247.7,203.66A988.41,988.41,0,0,1,641,1845.46q-5.1-2-10.15-4.09l-4.61-1.9q-15.63-6.49-31-13.51A999.42,999.42,0,0,1,258.58,1575.1a380.62,380.62,0,0,0,234.88,120.58h.32q6.12.75,12.29,1.27h.53q23.86,2.4,47.86,4,17.31,1.14,34.72,1.85,27.45,1.14,55.16,1.24h5.52q19.68,0,39.22-.53,50.17-1.33,99.46-6.06a1435.83,1435.83,0,0,0,223-39.16A1426.6,1426.6,0,0,0,1165.62,1609a3.8,3.8,0,0,0,.47-.18q7.41,6.08,14.74,12.28l.7.59c1.24,1,2.48,2.12,3.69,3.18.73.64,1.46,1.28,2.18,1.93l2.15,1.92C1192.82,1631.75,1196,1634.71,1198.88,1637.53Z"/><path class="cls-15" d="M1308.51,1869.13q-8.48,2.68-17,5.22a988.26,988.26,0,0,1-120,27.58h0a1007.39,1007.39,0,0,1-275,7.18,999.92,999.92,0,0,0,247.68-203.66q5.4-6.12,10.7-12.36c1.18-1.38,2.35-2.76,3.52-4.16l3.5-4.18q7.59-9.09,14.95-18.38c1.62-2,3.21-4.06,4.78-6.07q8.79-11.25,17.27-22.77l2.44,2.38c.79.77,1.56,1.54,2.31,2.29l1.11,1.11c2,2,3.83,3.89,5.46,5.58l.6.62.58.61,1.11,1.16.48.5.49.52.42.44.56.61.66.71,1.3,1.41,1,1.11.34.36.63.71q.69.76,1.35,1.53l3.93,4.54c1.71,2,3.35,4,4.93,5.92l1.76,2.18,1.71,2.14c.66.83,1.3,1.65,1.94,2.47,1.53,2,3,3.92,4.42,5.82l2,2.64c2.22,3,4.28,6,6.17,8.71.5.72,1,1.44,1.46,2.14l.12.17c.49.75,1,1.49,1.49,2.24s1,1.45,1.42,2.15q9.4,14.4,17.45,29.71A358.49,358.49,0,0,1,1308.51,1869.13Z"/><path class="cls-16" d="M1309.6,1897.42q0,13.77-1,27.28a356.46,356.46,0,0,0-17.14-50.36,360.8,360.8,0,0,0-280-216,1426.6,1426.6,0,0,0,154.08-49.28,3.8,3.8,0,0,0,.47-.18q7.41,6.07,14.74,12.28l.7.59c1.24,1,2.48,2.12,3.69,3.18.73.64,1.46,1.28,2.18,1.93l2.15,1.92c3.29,3,6.44,6,9.35,8.77l2.44,2.38c.79.77,1.56,1.54,2.31,2.29l1.11,1.11c2,2,3.83,3.89,5.46,5.58l.6.62.58.61,1.11,1.16.48.5.49.52.42.44.56.61.66.71,1.3,1.41,1,1.11.34.36.63.71q.69.76,1.35,1.53l3.93,4.54c1.71,2,3.35,4,4.93,5.92l1.76,2.18L1232,1674c.66.83,1.3,1.65,1.94,2.47,1.53,2,3,3.92,4.42,5.82l2,2.64c2.22,3,4.28,6,6.17,8.71.5.72,1,1.44,1.46,2.14l.12.17c.49.75,1,1.49,1.49,2.24s1,1.45,1.42,2.15q9.4,14.4,17.45,29.71a358.49,358.49,0,0,1,40,139.12Q1309.59,1883.13,1309.6,1897.42Z"/><path class="cls-17" d="M1004.91,833.46c-38.72,5.28-75,9.74-108.51,13.45l-13,1.43C830.77,854,785.71,857.78,750.18,860c-24.69,1.54-44.78,2.32-59.6,2.45-34.13.31-65.82-.6-65.82-.6-7.43-.25-14.28-.55-21-.89-8.64-.44-17-.94-25.9-1.45-24.44-1.4-53.09-2.9-103.43-3.59-13.79-.19-29.2-.32-46.6-.37q-37.29.4-74.4,4.53c-11.24,1.23-23.21,2.78-35.5,4.76h0a508.37,508.37,0,0,0-61,13.39h0c-31.56,9.19-61,22.11-81.42,40.27-2.34,2.08-7.73,8-13.16,14.29h0c-5.41,6.27-10.87,12.89-13.37,16.34-.09.12-.17.23-.24.34-.88,1.32-1.74,2.66-2.56,4-.34.54-.67,1.09-1,1.65-.66,1.13-1.24,2.18-1.72,3a112.64,112.64,0,0,0-5.84,94.61h0a112.57,112.57,0,0,1-16.08-99.42c.26-.83.55-1.7.86-2.63.22-.62.44-1.27.68-1.93l.37-1c.22-.57.44-1.16.68-1.77.35-.89.72-1.81,1.12-2.75,0-.13.11-.25.16-.38l.75-1.7.27-.6c.27-.6.56-1.21.85-1.83.39-.81.8-1.64,1.23-2.48,0,0,.17-.34.48-.92.07-.15.16-.3.25-.48l.3-.56.34-.62c.83-1.53,2-3.59,3.34-5.78.28-.46.57-.92.87-1.39.18-.29.37-.58.56-.87l.17-.25c.06-.1.14-.21.22-.32l.21-.3c2.27-3.21,7.68-9.88,13.23-16.32h0A195.51,195.51,0,0,1,162,893.81c22.3-19.84,51.41-35.73,81.19-48.23h0c6.51-2.74,13-5.31,19.54-7.73h0c62.27-23.13,121.55-32,121.55-32,14.87-2.23,29.25-4.27,43.93-6.21C471,794,516.31,789.05,583.05,782l28.53-3c62.8-6.69,110.88-11.69,151.88-17.44,26.34-3.67,49.7-7.62,72.08-12.43A1217.73,1217.73,0,0,1,961.79,808.8Q983.6,820.71,1004.91,833.46Z"/></g></g></svg>