<svg xmlns="http://www.w3.org/2000/svg" viewBox="0 0 656.4 647.6"><defs><style>.cls-1{fill:#fff;isolation:isolate;opacity:0.72;}</style></defs><g id="Capa_2" data-name="Capa 2"><g id="Capa_1-2" data-name="Capa 1"><path id="blob-2" class="cls-1" d="M517.8,91c50.64,37.25,101.87,64.16,124.05,106.85,22.6,42.69,15.91,100.44,0,149.41s-40.78,89-63.38,131.3-42.23,87.37-77,120.44c-34.32,33.06-83.31,54.62-127.68,47.08-44.37-8-84.09-45.16-121.34-77-37.25-31.39-72.16-58-118.63-92.36-46.46-34.74-104-77-125-132.21-20.51-54.83-4.1-121.61,34.41-169.33,38.93-47.71,99.8-76.5,157.56-109.57C259,33,314.25-4.57,366.57.45,418.48,5.9,467.57,53.76,517.8,91Z"/></g></g></svg>